<mxfile host="app.diagrams.net" modified="2023-11-14T11:07:17.999Z" agent="Mozilla/5.0 (Windows NT 10.0; Win64; x64) AppleWebKit/537.36 (KHTML, like Gecko) Chrome/119.0.0.0 Safari/537.36" etag="A_ogdCBgAITOwvgtwqn9" version="22.1.0" type="device">
  <diagram name="Page-1" id="19d0S30MAKCXK7MGr-HA">
    <mxGraphModel dx="1050" dy="574" grid="1" gridSize="10" guides="1" tooltips="1" connect="1" arrows="1" fold="1" page="1" pageScale="1" pageWidth="850" pageHeight="1100" math="0" shadow="0">
      <root>
        <mxCell id="0" />
        <mxCell id="1" parent="0" />
        <mxCell id="-7sG3Zx9vh_wAFw0iBni-59" value="" style="edgeStyle=orthogonalEdgeStyle;rounded=0;orthogonalLoop=1;jettySize=auto;html=1;entryX=0.423;entryY=-0.063;entryDx=0;entryDy=0;entryPerimeter=0;" parent="1" source="-7sG3Zx9vh_wAFw0iBni-2" target="-7sG3Zx9vh_wAFw0iBni-3" edge="1">
          <mxGeometry relative="1" as="geometry">
            <mxPoint x="430" y="180" as="targetPoint" />
          </mxGeometry>
        </mxCell>
        <mxCell id="-7sG3Zx9vh_wAFw0iBni-2" value="Login page" style="ellipse;whiteSpace=wrap;html=1;" parent="1" vertex="1">
          <mxGeometry x="370" y="20" width="120" height="80" as="geometry" />
        </mxCell>
        <mxCell id="-7sG3Zx9vh_wAFw0iBni-12" value="" style="edgeStyle=orthogonalEdgeStyle;rounded=0;orthogonalLoop=1;jettySize=auto;html=1;" parent="1" source="-7sG3Zx9vh_wAFw0iBni-3" target="-7sG3Zx9vh_wAFw0iBni-6" edge="1">
          <mxGeometry relative="1" as="geometry" />
        </mxCell>
        <mxCell id="-7sG3Zx9vh_wAFw0iBni-65" value="" style="edgeStyle=orthogonalEdgeStyle;rounded=0;orthogonalLoop=1;jettySize=auto;html=1;" parent="1" source="-7sG3Zx9vh_wAFw0iBni-3" target="-7sG3Zx9vh_wAFw0iBni-64" edge="1">
          <mxGeometry relative="1" as="geometry" />
        </mxCell>
        <mxCell id="-7sG3Zx9vh_wAFw0iBni-3" value="Application Dashboard" style="rounded=1;whiteSpace=wrap;html=1;" parent="1" vertex="1">
          <mxGeometry x="380" y="240" width="120" height="60" as="geometry" />
        </mxCell>
        <mxCell id="-7sG3Zx9vh_wAFw0iBni-24" value="" style="edgeStyle=orthogonalEdgeStyle;rounded=0;orthogonalLoop=1;jettySize=auto;html=1;" parent="1" edge="1">
          <mxGeometry relative="1" as="geometry">
            <mxPoint x="116" y="459" as="sourcePoint" />
            <mxPoint x="116" y="479" as="targetPoint" />
          </mxGeometry>
        </mxCell>
        <mxCell id="-7sG3Zx9vh_wAFw0iBni-46" value="" style="edgeStyle=orthogonalEdgeStyle;rounded=0;orthogonalLoop=1;jettySize=auto;html=1;" parent="1" target="-7sG3Zx9vh_wAFw0iBni-47" edge="1">
          <mxGeometry relative="1" as="geometry">
            <mxPoint x="210" y="461" as="sourcePoint" />
            <mxPoint x="190" y="520" as="targetPoint" />
            <Array as="points">
              <mxPoint x="196" y="461" />
            </Array>
          </mxGeometry>
        </mxCell>
        <mxCell id="-7sG3Zx9vh_wAFw0iBni-4" value="Create Menu" style="rounded=0;whiteSpace=wrap;html=1;" parent="1" vertex="1">
          <mxGeometry x="90" y="400" width="120" height="60" as="geometry" />
        </mxCell>
        <mxCell id="-7sG3Zx9vh_wAFw0iBni-50" value="" style="edgeStyle=orthogonalEdgeStyle;rounded=0;orthogonalLoop=1;jettySize=auto;html=1;" parent="1" source="-7sG3Zx9vh_wAFw0iBni-5" target="-7sG3Zx9vh_wAFw0iBni-49" edge="1">
          <mxGeometry relative="1" as="geometry" />
        </mxCell>
        <mxCell id="-7sG3Zx9vh_wAFw0iBni-5" value="User Menu" style="rounded=0;whiteSpace=wrap;html=1;" parent="1" vertex="1">
          <mxGeometry x="680" y="400" width="120" height="60" as="geometry" />
        </mxCell>
        <mxCell id="-7sG3Zx9vh_wAFw0iBni-28" value="" style="edgeStyle=orthogonalEdgeStyle;rounded=0;orthogonalLoop=1;jettySize=auto;html=1;" parent="1" source="-7sG3Zx9vh_wAFw0iBni-6" target="-7sG3Zx9vh_wAFw0iBni-27" edge="1">
          <mxGeometry relative="1" as="geometry" />
        </mxCell>
        <mxCell id="-7sG3Zx9vh_wAFw0iBni-30" value="" style="edgeStyle=orthogonalEdgeStyle;rounded=0;orthogonalLoop=1;jettySize=auto;html=1;" parent="1" source="-7sG3Zx9vh_wAFw0iBni-6" target="-7sG3Zx9vh_wAFw0iBni-29" edge="1">
          <mxGeometry relative="1" as="geometry" />
        </mxCell>
        <mxCell id="-7sG3Zx9vh_wAFw0iBni-32" value="" style="edgeStyle=orthogonalEdgeStyle;rounded=0;orthogonalLoop=1;jettySize=auto;html=1;" parent="1" source="-7sG3Zx9vh_wAFw0iBni-6" target="-7sG3Zx9vh_wAFw0iBni-31" edge="1">
          <mxGeometry relative="1" as="geometry" />
        </mxCell>
        <mxCell id="-7sG3Zx9vh_wAFw0iBni-6" value="Record Menu" style="rounded=0;whiteSpace=wrap;html=1;" parent="1" vertex="1">
          <mxGeometry x="380" y="400" width="120" height="60" as="geometry" />
        </mxCell>
        <mxCell id="-7sG3Zx9vh_wAFw0iBni-20" value="" style="endArrow=classic;html=1;rounded=0;entryX=0.573;entryY=-0.05;entryDx=0;entryDy=0;entryPerimeter=0;exitX=0;exitY=0.5;exitDx=0;exitDy=0;" parent="1" source="-7sG3Zx9vh_wAFw0iBni-3" target="-7sG3Zx9vh_wAFw0iBni-4" edge="1">
          <mxGeometry width="50" height="50" relative="1" as="geometry">
            <mxPoint x="280" y="360" as="sourcePoint" />
            <mxPoint x="330" y="310" as="targetPoint" />
          </mxGeometry>
        </mxCell>
        <mxCell id="-7sG3Zx9vh_wAFw0iBni-26" value="" style="edgeStyle=orthogonalEdgeStyle;rounded=0;orthogonalLoop=1;jettySize=auto;html=1;" parent="1" source="-7sG3Zx9vh_wAFw0iBni-23" target="-7sG3Zx9vh_wAFw0iBni-25" edge="1">
          <mxGeometry relative="1" as="geometry" />
        </mxCell>
        <mxCell id="-7sG3Zx9vh_wAFw0iBni-23" value="Claim Page Layouts" style="ellipse;whiteSpace=wrap;html=1;rounded=0;" parent="1" vertex="1">
          <mxGeometry x="76" y="480" width="80" height="50" as="geometry" />
        </mxCell>
        <mxCell id="-7sG3Zx9vh_wAFw0iBni-69" value="" style="edgeStyle=orthogonalEdgeStyle;rounded=0;orthogonalLoop=1;jettySize=auto;html=1;" parent="1" source="-7sG3Zx9vh_wAFw0iBni-25" target="-7sG3Zx9vh_wAFw0iBni-68" edge="1">
          <mxGeometry relative="1" as="geometry" />
        </mxCell>
        <mxCell id="-7sG3Zx9vh_wAFw0iBni-73" style="edgeStyle=orthogonalEdgeStyle;rounded=0;orthogonalLoop=1;jettySize=auto;html=1;" parent="1" source="-7sG3Zx9vh_wAFw0iBni-25" edge="1">
          <mxGeometry relative="1" as="geometry">
            <mxPoint x="210" y="630" as="targetPoint" />
          </mxGeometry>
        </mxCell>
        <mxCell id="-7sG3Zx9vh_wAFw0iBni-25" value="Line Bar, Chart bar, etc" style="ellipse;whiteSpace=wrap;html=1;rounded=0;" parent="1" vertex="1">
          <mxGeometry x="76" y="560" width="80" height="60" as="geometry" />
        </mxCell>
        <mxCell id="-7sG3Zx9vh_wAFw0iBni-38" value="" style="edgeStyle=orthogonalEdgeStyle;rounded=0;orthogonalLoop=1;jettySize=auto;html=1;" parent="1" source="-7sG3Zx9vh_wAFw0iBni-27" target="-7sG3Zx9vh_wAFw0iBni-37" edge="1">
          <mxGeometry relative="1" as="geometry" />
        </mxCell>
        <mxCell id="-7sG3Zx9vh_wAFw0iBni-27" value="add record" style="ellipse;whiteSpace=wrap;html=1;rounded=0;" parent="1" vertex="1">
          <mxGeometry x="300" y="500" width="70" height="50" as="geometry" />
        </mxCell>
        <mxCell id="-7sG3Zx9vh_wAFw0iBni-40" value="" style="edgeStyle=orthogonalEdgeStyle;rounded=0;orthogonalLoop=1;jettySize=auto;html=1;" parent="1" source="-7sG3Zx9vh_wAFw0iBni-29" target="-7sG3Zx9vh_wAFw0iBni-39" edge="1">
          <mxGeometry relative="1" as="geometry" />
        </mxCell>
        <mxCell id="-7sG3Zx9vh_wAFw0iBni-29" value="veiw record" style="ellipse;whiteSpace=wrap;html=1;rounded=0;" parent="1" vertex="1">
          <mxGeometry x="510" y="500" width="70" height="50" as="geometry" />
        </mxCell>
        <mxCell id="-7sG3Zx9vh_wAFw0iBni-31" value="quick search" style="ellipse;whiteSpace=wrap;html=1;rounded=0;" parent="1" vertex="1">
          <mxGeometry x="400" y="500" width="80" height="50" as="geometry" />
        </mxCell>
        <mxCell id="-7sG3Zx9vh_wAFw0iBni-37" value="Upload SpreadSheet&lt;br&gt;" style="ellipse;whiteSpace=wrap;html=1;rounded=0;" parent="1" vertex="1">
          <mxGeometry x="295" y="580" width="80" height="40" as="geometry" />
        </mxCell>
        <mxCell id="-7sG3Zx9vh_wAFw0iBni-39" value="map search" style="ellipse;whiteSpace=wrap;html=1;rounded=0;" parent="1" vertex="1">
          <mxGeometry x="460" y="580" width="80" height="40" as="geometry" />
        </mxCell>
        <mxCell id="-7sG3Zx9vh_wAFw0iBni-42" value="quick search" style="ellipse;whiteSpace=wrap;html=1;rounded=0;" parent="1" vertex="1">
          <mxGeometry x="560" y="580" width="80" height="40" as="geometry" />
        </mxCell>
        <mxCell id="-7sG3Zx9vh_wAFw0iBni-43" value="" style="endArrow=classic;html=1;rounded=0;entryX=0.5;entryY=0;entryDx=0;entryDy=0;exitX=0.5;exitY=1;exitDx=0;exitDy=0;" parent="1" source="-7sG3Zx9vh_wAFw0iBni-29" target="-7sG3Zx9vh_wAFw0iBni-42" edge="1">
          <mxGeometry width="50" height="50" relative="1" as="geometry">
            <mxPoint x="560" y="550" as="sourcePoint" />
            <mxPoint x="600" y="550" as="targetPoint" />
            <Array as="points">
              <mxPoint x="600" y="550" />
            </Array>
          </mxGeometry>
        </mxCell>
        <mxCell id="-7sG3Zx9vh_wAFw0iBni-47" value="Saved Search" style="ellipse;whiteSpace=wrap;html=1;" parent="1" vertex="1">
          <mxGeometry x="156" y="530" width="80" height="30" as="geometry" />
        </mxCell>
        <mxCell id="-7sG3Zx9vh_wAFw0iBni-48" value="SSO&amp;nbsp; Login and&lt;br&gt;&amp;nbsp;JWT security" style="text;html=1;align=center;verticalAlign=middle;resizable=0;points=[];autosize=1;strokeColor=none;fillColor=none;" parent="1" vertex="1">
          <mxGeometry x="330" y="120" width="110" height="40" as="geometry" />
        </mxCell>
        <mxCell id="-7sG3Zx9vh_wAFw0iBni-53" value="" style="edgeStyle=orthogonalEdgeStyle;rounded=0;orthogonalLoop=1;jettySize=auto;html=1;" parent="1" source="-7sG3Zx9vh_wAFw0iBni-49" target="-7sG3Zx9vh_wAFw0iBni-52" edge="1">
          <mxGeometry relative="1" as="geometry" />
        </mxCell>
        <mxCell id="-7sG3Zx9vh_wAFw0iBni-55" value="" style="edgeStyle=orthogonalEdgeStyle;rounded=0;orthogonalLoop=1;jettySize=auto;html=1;" parent="1" source="-7sG3Zx9vh_wAFw0iBni-49" target="-7sG3Zx9vh_wAFw0iBni-54" edge="1">
          <mxGeometry relative="1" as="geometry" />
        </mxCell>
        <mxCell id="-7sG3Zx9vh_wAFw0iBni-49" value="User Management" style="ellipse;whiteSpace=wrap;html=1;rounded=0;" parent="1" vertex="1">
          <mxGeometry x="700" y="500" width="80" height="50" as="geometry" />
        </mxCell>
        <mxCell id="-7sG3Zx9vh_wAFw0iBni-52" value="Create user and User Group permisson" style="ellipse;whiteSpace=wrap;html=1;rounded=0;" parent="1" vertex="1">
          <mxGeometry x="650" y="580" width="110" height="70" as="geometry" />
        </mxCell>
        <mxCell id="-7sG3Zx9vh_wAFw0iBni-54" value="Grant and revoke access for features" style="ellipse;whiteSpace=wrap;html=1;rounded=0;" parent="1" vertex="1">
          <mxGeometry x="860" y="530" width="80" height="80" as="geometry" />
        </mxCell>
        <mxCell id="-7sG3Zx9vh_wAFw0iBni-60" value="" style="endArrow=classic;html=1;rounded=0;entryX=0.573;entryY=-0.05;entryDx=0;entryDy=0;entryPerimeter=0;exitX=1;exitY=0.5;exitDx=0;exitDy=0;" parent="1" source="-7sG3Zx9vh_wAFw0iBni-3" edge="1">
          <mxGeometry width="50" height="50" relative="1" as="geometry">
            <mxPoint x="940" y="295" as="sourcePoint" />
            <mxPoint x="723" y="400" as="targetPoint" />
          </mxGeometry>
        </mxCell>
        <mxCell id="-7sG3Zx9vh_wAFw0iBni-67" value="" style="edgeStyle=orthogonalEdgeStyle;rounded=0;orthogonalLoop=1;jettySize=auto;html=1;" parent="1" source="-7sG3Zx9vh_wAFw0iBni-64" target="-7sG3Zx9vh_wAFw0iBni-66" edge="1">
          <mxGeometry relative="1" as="geometry" />
        </mxCell>
        <mxCell id="-7sG3Zx9vh_wAFw0iBni-64" value="Business Intelligent" style="rounded=1;whiteSpace=wrap;html=1;" parent="1" vertex="1">
          <mxGeometry x="550" y="190" width="120" height="60" as="geometry" />
        </mxCell>
        <mxCell id="-7sG3Zx9vh_wAFw0iBni-66" value="Documents Lookups" style="ellipse;whiteSpace=wrap;html=1;rounded=1;" parent="1" vertex="1">
          <mxGeometry x="722" y="180" width="78" height="80" as="geometry" />
        </mxCell>
        <mxCell id="-7sG3Zx9vh_wAFw0iBni-68" value="Record Type Creaton" style="ellipse;whiteSpace=wrap;html=1;rounded=0;" parent="1" vertex="1">
          <mxGeometry x="76" y="648" width="80" height="42" as="geometry" />
        </mxCell>
        <mxCell id="-7sG3Zx9vh_wAFw0iBni-74" value="Warning/Message/info creaton" style="ellipse;whiteSpace=wrap;html=1;rounded=0;" parent="1" vertex="1">
          <mxGeometry x="174" y="632" width="146" height="42" as="geometry" />
        </mxCell>
        <mxCell id="ZPAT6oZzrLbSYUF7XKB9-2" value="Database" style="shape=cylinder3;whiteSpace=wrap;html=1;boundedLbl=1;backgroundOutline=1;size=15;" vertex="1" parent="1">
          <mxGeometry x="470" y="810" width="60" height="80" as="geometry" />
        </mxCell>
        <mxCell id="ZPAT6oZzrLbSYUF7XKB9-3" value="" style="endArrow=classic;html=1;rounded=0;entryX=0;entryY=0.5;entryDx=0;entryDy=0;entryPerimeter=0;" edge="1" parent="1" target="ZPAT6oZzrLbSYUF7XKB9-2">
          <mxGeometry width="50" height="50" relative="1" as="geometry">
            <mxPoint x="110" y="690" as="sourcePoint" />
            <mxPoint x="156" y="830" as="targetPoint" />
            <Array as="points">
              <mxPoint x="110" y="850" />
            </Array>
          </mxGeometry>
        </mxCell>
        <mxCell id="ZPAT6oZzrLbSYUF7XKB9-5" value="" style="endArrow=classic;html=1;rounded=0;entryX=0.5;entryY=0;entryDx=0;entryDy=0;entryPerimeter=0;" edge="1" parent="1" target="ZPAT6oZzrLbSYUF7XKB9-2">
          <mxGeometry width="50" height="50" relative="1" as="geometry">
            <mxPoint x="370" y="530" as="sourcePoint" />
            <mxPoint x="420" y="480" as="targetPoint" />
          </mxGeometry>
        </mxCell>
        <mxCell id="ZPAT6oZzrLbSYUF7XKB9-6" value="" style="endArrow=classic;html=1;rounded=0;entryX=0.605;entryY=1.03;entryDx=0;entryDy=0;entryPerimeter=0;" edge="1" parent="1" target="-7sG3Zx9vh_wAFw0iBni-39">
          <mxGeometry width="50" height="50" relative="1" as="geometry">
            <mxPoint x="500" y="810" as="sourcePoint" />
            <mxPoint x="550" y="760" as="targetPoint" />
          </mxGeometry>
        </mxCell>
        <mxCell id="ZPAT6oZzrLbSYUF7XKB9-7" value="" style="endArrow=classic;html=1;rounded=0;entryX=0.605;entryY=1.03;entryDx=0;entryDy=0;entryPerimeter=0;" edge="1" parent="1">
          <mxGeometry width="50" height="50" relative="1" as="geometry">
            <mxPoint x="500" y="810" as="sourcePoint" />
            <mxPoint x="604" y="621" as="targetPoint" />
          </mxGeometry>
        </mxCell>
        <mxCell id="ZPAT6oZzrLbSYUF7XKB9-8" value="" style="endArrow=classic;html=1;rounded=0;" edge="1" parent="1">
          <mxGeometry width="50" height="50" relative="1" as="geometry">
            <mxPoint x="710" y="650" as="sourcePoint" />
            <mxPoint x="510" y="810" as="targetPoint" />
          </mxGeometry>
        </mxCell>
        <mxCell id="ZPAT6oZzrLbSYUF7XKB9-9" value="" style="endArrow=classic;html=1;rounded=0;entryX=0.245;entryY=0.92;entryDx=0;entryDy=0;exitX=1;exitY=0.5;exitDx=0;exitDy=0;exitPerimeter=0;entryPerimeter=0;" edge="1" parent="1" source="ZPAT6oZzrLbSYUF7XKB9-2" target="-7sG3Zx9vh_wAFw0iBni-54">
          <mxGeometry width="50" height="50" relative="1" as="geometry">
            <mxPoint x="530" y="829" as="sourcePoint" />
            <mxPoint x="634" y="640" as="targetPoint" />
            <Array as="points">
              <mxPoint x="880" y="850" />
            </Array>
          </mxGeometry>
        </mxCell>
        <mxCell id="ZPAT6oZzrLbSYUF7XKB9-10" value="" style="endArrow=classic;html=1;rounded=0;exitX=0.959;exitY=0.752;exitDx=0;exitDy=0;exitPerimeter=0;" edge="1" parent="1" source="-7sG3Zx9vh_wAFw0iBni-74">
          <mxGeometry width="50" height="50" relative="1" as="geometry">
            <mxPoint x="310" y="660" as="sourcePoint" />
            <mxPoint x="470" y="850" as="targetPoint" />
          </mxGeometry>
        </mxCell>
      </root>
    </mxGraphModel>
  </diagram>
</mxfile>
